<?xml version="1.0" encoding="utf-8"?>
<!-- Generator: Adobe Illustrator 27.3.1, SVG Export Plug-In . SVG Version: 6.00 Build 0)  -->
<svg version="1.1" id="Ebene_1" xmlns="http://www.w3.org/2000/svg" xmlns:xlink="http://www.w3.org/1999/xlink" x="0px" y="0px"
	 viewBox="0 0 441.4 102.4" style="enable-background:new 0 0 441.4 102.4;" xml:space="preserve">
<style type="text/css">
	.st0{fill:#0070B6;}
</style>
<path class="st0" d="M408.3,16.8l-15.7,37.4l11.8,0l8.3-20.2c2.3-5.5,6.2-8.8,11.7-9.9c1.3-0.3,3-0.2,5,0.1c1,0.2,1.6,0.2,1.9,0.2
	l3.3-7.6c-3.5-1.3-12.2,0-15.7,4.4l-1,1.3l1.9-5.7L408.3,16.8z M369.5,32.3l3.3-7.8l14.8,0l-3.1,7.7H369.5z M364.1,16.9l-15.7,37.4
	l38.5,0.1l3.3-7.7l-26.8,0l3.4-7.8l26.5,0l9.2-21.9L364.1,16.9z M346.8,15.2h11.7l2.2-5.9h-11.6L346.8,15.2z M346.3,16.8l-15.7,37.5
	l11.7,0L358,16.9L346.3,16.8z M307.2,32.4l3.1-7.6l15,0l-3.1,7.7L307.2,32.4z M285.7,54.5l38.8-0.1l3.2-7.7l-26.8,0.1l3.4-7.9
	l26.6,0l9.2-21.9l-38.5,0L285.7,54.5z M175.2,43l7.8-18.1l14.4,0l-7.6,18.2L175.2,43z M161.7,49.5l25.5,0l-2.4,5.2l-24.6-0.1
	l-3.3,6.5l36.8,0l18.8-44l-37.2,0L161.7,49.5z M221.6,9.5l-19.1,45.2l12.1-0.1l18.9-45.1L221.6,9.5z M224.1,64.6h-5.2l-1.6,4.7
	l5.2,0L224.1,64.6z M236.6,17.1l-15.8,37.5l11.8-0.1l12.8-29.7l11.5,0l-12.5,29.7l11.8-0.1l12.5-29.7l11.6,0l-12.3,29.6l12,0
	l15.7-37.5L236.6,17.1z M281.5,64.7h-4.5l-1.6,5.2h4.4L281.5,64.7z M286.7,64.7l-13.1,37.7h4.9l4.2-12.9l0.7,0l3.7,13h5.3l-4.2-13.8
	l12.7-11.1H295l-10.6,8.8l7.6-21.7L286.7,64.7z M273.2,77.5l-9.8,24.8h5.4l9.3-24.8H273.2z M256.2,82.3l-7.4,20.1l5.4,0l7.4-20.1
	l6.8,0l1.7-4.7l-6.5,0l2.9-8.7l-6.6,3.6l-2.1,5.1l-3.9,0l-1.9,4.7L256.2,82.3z M220.5,95.1l-2.4,7.2h21.1l5.4-15.5h-15.2l1.7-4.6
	l10.5,0l-0.8,2.6l5.4,0l2.5-7.2h-21.7l-5,14l16.2,0l-2.5,6.6h-10.9l1-3H220.5z M214.7,77l-8.8,25.3h5.4l8.8-25.3L214.7,77z
	 M200.1,77l-9.5,25.3h5.4l4.9-12.9l1-2.6c1-2.2,2.5-4.6,5.1-4.6h3.4l2-5.2l-2.3,0c-1.8,0-3.2,1-4.6,2.1l-0.8,0.7l-0.6,0.1l1-2.9
	L200.1,77z M172.8,77l-9.3,25.3h22.6l8.9-25.3h-5.1l-7.6,20.7h-11.8l7.9-20.7H172.8z M142.2,97.8l5.6-16h13.3l-5.8,15.9L142.2,97.8z
	 M144.5,77l-9.4,25.3h23.4l9.4-25.3L144.5,77z M119.5,70.9H134l-11.4,31.4h5.4l11.4-31.4h14.8l1.5-4.5h-34.7L119.5,70.9z
	 M132.6,17.3l-15.9,37.4l10.3-0.1L139.6,25l16.2,0l-12.3,29.7l10,0l15.7-37.4L132.6,17.3z M85.9,46.9l9.3-22l16,0l-9.1,22L85.9,46.9
	z M87.9,17.3L72.1,54.7l41.5,0L117,47h-4.5l12.5-29.7L87.9,17.3z M63,23.9L50,54.7l10.1-0.1l13.2-30.9l7.1,0l2.8-6.5h-7.3l3.4-7.9
	l-11.6,3.1l-1.8,4.6l-7.6,0.1l-2.9,6.6H63z M441.4,0H22.3L10,30.3l28.9,0l-6.5,16.5l-19.4,0l2.7-6.2H6l-6,14l39.3,0l14.2-33.3
	l-29.7-0.1l5.6-13.1l409.1-0.5L441.4,0z"/>
</svg>
